<svg width="24" height="24" viewBox="0 0 24 24" fill="none" xmlns="http://www.w3.org/2000/svg">
<path d="M20.4001 11.52H8.53934M8.53934 11.52C8.53934 12.075 8.31789 12.6074 7.92541 12.9998C7.53293 13.3923 7.00062 13.6128 6.44558 13.6128C5.89053 13.6128 5.35822 13.3923 4.96574 12.9998C4.57327 12.6074 4.35278 12.075 4.35278 11.52M8.53934 11.52C8.53934 10.965 8.31789 10.4326 7.92541 10.0402C7.53293 9.64769 7.00062 9.4272 6.44558 9.4272C5.89053 9.4272 5.35822 9.64769 4.96574 10.0402C4.57327 10.4326 4.35278 10.965 4.35278 11.52M4.35278 11.52H2.64014M20.4001 17.8627H14.8821M14.8821 17.8627C14.8821 18.4179 14.661 18.9508 14.2685 19.3434C13.8759 19.7359 13.3435 19.9565 12.7883 19.9565C12.2333 19.9565 11.7009 19.735 11.3085 19.3426C10.916 18.9501 10.6955 18.4178 10.6955 17.8627M14.8821 17.8627C14.8821 17.3075 14.661 16.7756 14.2685 16.383C13.8759 15.9905 13.3435 15.7699 12.7883 15.7699C12.2333 15.7699 11.7009 15.9904 11.3085 16.3829C10.916 16.7754 10.6955 17.3077 10.6955 17.8627M10.6955 17.8627H2.64014M20.4001 5.17728H17.4193M17.4193 5.17728C17.4193 5.45211 17.3642 5.72425 17.2591 5.97816C17.1539 6.23207 16.9997 6.46278 16.8054 6.65711C16.6111 6.85145 16.3804 7.0056 16.1265 7.11078C15.8725 7.21595 15.6004 7.27008 15.3256 7.27008C14.7705 7.27008 14.2382 7.04959 13.8457 6.65711C13.4533 6.26464 13.2328 5.73233 13.2328 5.17728M17.4193 5.17728C17.4193 4.90245 17.3642 4.63031 17.2591 4.3764C17.1539 4.12249 16.9997 3.89178 16.8054 3.69745C16.6111 3.50311 16.3804 3.34896 16.1265 3.24379C15.8725 3.13861 15.6004 3.08448 15.3256 3.08448C14.7705 3.08448 14.2382 3.30497 13.8457 3.69745C13.4533 4.08992 13.2328 4.62224 13.2328 5.17728M13.2328 5.17728H2.64014" stroke="#2B60A1" stroke-width="1.6" stroke-miterlimit="10" stroke-linecap="round"/>
</svg>
