<svg width="32" height="32" viewBox="0 0 32 32" fill="none" xmlns="http://www.w3.org/2000/svg">
<path d="M16 28C13.2 28 10.7222 27.1502 8.56667 25.4507C6.41111 23.7511 5.01111 21.5787 4.36667 18.9333C4.27778 18.6 4.34444 18.2947 4.56667 18.0173C4.78889 17.74 5.08889 17.5787 5.46667 17.5333C5.82222 17.4889 6.14444 17.5556 6.43333 17.7333C6.72222 17.9111 6.92222 18.1778 7.03333 18.5333C7.56667 20.5333 8.66667 22.1667 10.3333 23.4333C12 24.7 13.8889 25.3333 16 25.3333C18.6 25.3333 20.8058 24.428 22.6173 22.6173C24.4289 20.8067 25.3342 18.6009 25.3333 16C25.3324 13.3991 24.4271 11.1938 22.6173 9.384C20.8076 7.57422 18.6018 6.66844 16 6.66667C14.4667 6.66667 13.0333 7.02222 11.7 7.73333C10.3667 8.44444 9.24444 9.42222 8.33333 10.6667H10.6667C11.0444 10.6667 11.3613 10.7947 11.6173 11.0507C11.8733 11.3067 12.0009 11.6231 12 12C11.9991 12.3769 11.8711 12.6938 11.616 12.9507C11.3609 13.2076 11.0444 13.3351 10.6667 13.3333H5.33333C4.95556 13.3333 4.63911 13.2053 4.384 12.9493C4.12889 12.6933 4.00089 12.3769 4 12V6.66667C4 6.28889 4.128 5.97244 4.384 5.71733C4.64 5.46222 4.95644 5.33422 5.33333 5.33333C5.71022 5.33244 6.02711 5.46044 6.284 5.71733C6.54089 5.97422 6.66844 6.29067 6.66667 6.66667V8.46667C7.8 7.04444 9.18356 5.94444 10.8173 5.16667C12.4511 4.38889 14.1787 4 16 4C17.6667 4 19.228 4.31689 20.684 4.95067C22.14 5.58444 23.4067 6.43956 24.484 7.516C25.5613 8.59244 26.4169 9.85911 27.0507 11.316C27.6844 12.7729 28.0009 14.3342 28 16C27.9991 17.6658 27.6827 19.2271 27.0507 20.684C26.4187 22.1409 25.5631 23.4076 24.484 24.484C23.4049 25.5604 22.1382 26.416 20.684 27.0507C19.2298 27.6853 17.6684 28.0018 16 28ZM17.3333 15.4667L20.6667 18.8C20.9111 19.0444 21.0333 19.3556 21.0333 19.7333C21.0333 20.1111 20.9111 20.4222 20.6667 20.6667C20.4222 20.9111 20.1111 21.0333 19.7333 21.0333C19.3556 21.0333 19.0444 20.9111 18.8 20.6667L15.0667 16.9333C14.9333 16.8 14.8333 16.6502 14.7667 16.484C14.7 16.3178 14.6667 16.1453 14.6667 15.9667V10.6667C14.6667 10.2889 14.7947 9.97244 15.0507 9.71733C15.3067 9.46222 15.6231 9.33422 16 9.33333C16.3769 9.33244 16.6938 9.46044 16.9507 9.71733C17.2076 9.97422 17.3351 10.2907 17.3333 10.6667V15.4667Z" fill="#2B60A1"/>
</svg>
